# xmcd CD database file
#
# Track frame offsets:
#	150
#	16349
#	38753
#	50968
#	77512
#	98325
#	111457
#	141761
#	160621
#	186825
#	222119
#	243946
#
# Disc length: 3531 seconds
#
# Revision: 0
# Processed by: cddbd v1.5.1PL0 Copyright (c) Steve Scherf et al.
# Submitted via: CDex 1.51
#
DISCID=960dc90c
DTITLE=Trampled Under Foot - Rough Cuts
DYEAR=2004
DGENRE=Blues
TTITLE0=If You Love Me Like You Say
TTITLE1=Break Of Day
TTITLE2=I'm Getting Over You
TTITLE3=Lord Have Mercy
TTITLE4=Leave This Town
TTITLE5=Further On Up The Road
TTITLE6=You Don't Have To Go
TTITLE7=Walkin' and Cryin'
TTITLE8=This Desperate Heart
TTITLE9=Killin' Floor
TTITLE10=Everday I Got The Blues
TTITLE11=Hold It Right There
EXTD=YEAR: 2004
EXTT0=
EXTT1=
EXTT2=
EXTT3=
EXTT4=
EXTT5=
EXTT6=
EXTT7=
EXTT8=
EXTT9=
EXTT10=
EXTT11=
PLAYORDER=
